<svg width="34" height="34" viewBox="0 0 34 34" fill="none" xmlns="http://www.w3.org/2000/svg">
<path d="M1.99902 14.0464L30.1118 0.955566C32.1284 0.015625 33.769 1.43408 32.812 3.51904L19.7212 31.5122C18.8325 33.4263 16.2349 33.0845 16.2178 30.9141L16.1836 17.7549C16.1836 17.584 16.1152 17.5156 15.9443 17.5156L2.69971 17.4644C0.631836 17.4644 0.102051 14.9351 1.99902 14.0464ZM4.15234 15.4307L17.1748 15.3794C17.8755 15.3794 18.2856 15.8237 18.2856 16.4561L18.2344 29.5298C18.2344 29.6152 18.3369 29.6323 18.3711 29.5469L30.5903 3.31396C30.6758 3.14307 30.5562 3.05762 30.4023 3.12598L4.13525 15.2939C4.0498 15.3281 4.0498 15.4307 4.15234 15.4307Z" fill="#FF382B"/>
</svg>
