<svg width="35" height="35" viewBox="0 0 35 35" fill="none" xmlns="http://www.w3.org/2000/svg">
<path d="M17.2002 34.8022C7.81787 34.8022 0.059082 27.0435 0.059082 17.6611C0.059082 8.26172 7.80078 0.52002 17.1831 0.52002C26.5825 0.52002 34.3413 8.26172 34.3413 17.6611C34.3413 27.0435 26.5825 34.8022 17.2002 34.8022ZM17.2002 32.5806C25.4717 32.5806 32.1367 25.9155 32.1367 17.6611C32.1367 9.38965 25.4546 2.72461 17.1831 2.72461C8.92871 2.72461 2.28076 9.38965 2.28076 17.6611C2.28076 25.9155 8.92871 32.5806 17.2002 32.5806ZM7.90332 19.3359C7.37354 19.3359 6.98047 18.9258 6.98047 18.396C6.98047 17.8833 7.37354 17.4731 7.90332 17.4731H16.2603V6.41602C16.2603 5.88623 16.6704 5.49316 17.1831 5.49316C17.73 5.49316 18.1401 5.88623 18.1401 6.41602V18.396C18.1401 18.9258 17.73 19.3359 17.1831 19.3359H7.90332Z" fill="#FF382B"/>
</svg>
