<svg width="32" height="25" viewBox="0 0 32 25" fill="none" xmlns="http://www.w3.org/2000/svg">
<path d="M4.39844 24.8311C1.54199 24.8311 0.0771484 23.3809 0.0771484 20.5391V4.35254C0.0771484 1.52539 1.52734 0.0751953 4.10547 0.0751953H27.6016C30.4434 0.0751953 31.9082 1.54004 31.9082 4.35254V20.5391C31.9082 23.3662 30.458 24.8311 27.8799 24.8311H4.39844ZM14.2568 13.4639C14.8721 14.0645 15.4873 14.3428 16.0439 14.3428C16.6152 14.3428 17.2158 14.0938 17.8457 13.4639L29.2568 2.24316C28.832 1.9502 28.29 1.80371 27.6309 1.80371H4.35449C3.72461 1.80371 3.19727 1.93555 2.80176 2.18457L14.2568 13.4639ZM1.80566 20.5244C1.80566 20.832 1.83496 21.1104 1.89355 21.3594L10.9463 12.541L1.87891 3.64941C1.83496 3.86914 1.80566 4.10352 1.80566 4.36719V20.5244ZM30.1797 4.36719C30.1797 4.14746 30.165 3.94238 30.1357 3.75195L21.1562 12.541L30.1064 21.2715C30.1504 21.0518 30.1797 20.8027 30.1797 20.5391V4.36719ZM4.35449 23.0879H27.6309C28.2461 23.0879 28.7588 22.9707 29.1543 22.7217L19.9551 13.7129L18.8711 14.7822C17.9043 15.7197 16.9668 16.0859 16.0439 16.0859C15.1211 16.0859 14.1836 15.7197 13.2314 14.7822L12.1475 13.7129L2.88965 22.7656C3.28516 22.9854 3.76855 23.0879 4.35449 23.0879Z" fill="#FF382B"/>
</svg>
